<svg width="254" height="40" viewBox="0 0 254 40" fill="none" xmlns="http://www.w3.org/2000/svg">
<g clip-path="url(#clip0_4_37)">
<path d="M69.5893 18.3256C69.5893 19.2306 69.4779 20.039 69.2549 20.7508C69.0319 21.4627 68.7278 22.0932 68.3425 22.6423C67.9674 23.1812 67.5317 23.6439 67.035 24.0303C66.5383 24.4167 66.0163 24.732 65.4689 24.976C64.9318 25.2201 64.3844 25.398 63.8268 25.5099C63.2797 25.6218 62.7625 25.6777 62.2761 25.6777H53.3362V21.7118H62.2761C62.783 21.6711 63.239 21.5694 63.6445 21.4068C64.06 21.2339 64.4149 21.0051 64.7088 20.7204C65.0027 20.4356 65.2308 20.095 65.3929 19.6984C65.5552 19.2916 65.6361 18.834 65.6361 18.3256V16.5257C65.5857 16.0274 65.4792 15.5698 65.3168 15.1529C65.1548 14.736 64.9318 14.38 64.6479 14.0851C64.3742 13.7902 64.0398 13.5614 63.6445 13.3987C63.2492 13.2259 62.793 13.1394 62.2761 13.1394H53.3664C52.8395 13.1394 52.4391 13.2767 52.1654 13.5513C51.8917 13.8258 51.7547 14.2224 51.7547 14.741V31.0468H47.8018V14.741C47.8018 13.7241 47.9841 12.8598 48.3492 12.148C48.7243 11.4361 49.1853 10.8616 49.7327 10.4243C50.29 9.98707 50.8932 9.67184 51.542 9.47861C52.1908 9.27524 52.7888 9.17356 53.3362 9.17356H62.2761C63.1681 9.17356 63.9689 9.2905 64.6783 9.52438C65.3877 9.7481 66.0112 10.0532 66.5486 10.4396C67.0959 10.8158 67.557 11.2531 67.9321 11.7514C68.3171 12.2496 68.6315 12.7734 68.8747 13.3225C69.1282 13.8614 69.3105 14.4105 69.4221 14.9698C69.5335 15.519 69.5893 16.0376 69.5893 16.5257V18.3256ZM94.7672 16.5257C94.7672 17.4307 94.6559 18.2391 94.4329 18.951C94.2099 19.6628 93.9057 20.2932 93.5207 20.8424C93.1456 21.3813 92.7096 21.844 92.2129 22.2304C91.7162 22.6168 91.1945 22.9372 90.6471 23.1914C90.1097 23.4354 89.5623 23.6134 89.005 23.7252C88.4576 23.8371 87.9407 23.893 87.454 23.893L95.7099 31.0468H89.5979L81.3572 23.893H78.5141V19.9272H87.454C87.9507 19.8865 88.4018 19.7848 88.8074 19.6221C89.2229 19.4492 89.5777 19.2204 89.8716 18.9357C90.1758 18.651 90.4087 18.3103 90.5711 17.9137C90.7331 17.507 90.8143 17.0443 90.8143 16.5257V14.0241C90.8143 13.8004 90.7838 13.6326 90.7232 13.5208C90.6725 13.3987 90.6013 13.3123 90.5101 13.2614C90.429 13.2004 90.3378 13.1648 90.2365 13.1547C90.1453 13.1445 90.059 13.1394 89.9781 13.1394H76.9329V31.0468H72.9797V11.1718C72.9797 10.8972 73.0304 10.6379 73.1318 10.3938C73.2332 10.1498 73.3702 9.93621 73.5425 9.75318C73.7248 9.57016 73.9378 9.42778 74.181 9.3261C74.4242 9.22441 74.6876 9.17356 74.9716 9.17356H89.9781C90.8599 9.17356 91.6049 9.33627 92.2129 9.66167C92.8212 9.9769 93.3128 10.3786 93.6878 10.8667C94.0729 11.3446 94.3466 11.8632 94.5089 12.4225C94.6812 12.9818 94.7672 13.5055 94.7672 13.9936V16.5257ZM121.618 22.1999C121.618 23.532 121.39 24.7574 120.934 25.876C120.477 26.9946 119.844 27.9606 119.033 28.774C118.222 29.5877 117.259 30.2231 116.144 30.6808C115.04 31.1283 113.833 31.352 112.526 31.352H107.174C105.866 31.352 104.655 31.1283 103.54 30.6808C102.425 30.2231 101.462 29.5877 100.651 28.774C99.8405 27.9606 99.202 26.9946 98.7355 25.876C98.2796 24.7574 98.0514 23.532 98.0514 22.1999V18.0205C98.0514 16.6986 98.2796 15.4783 98.7355 14.3597C99.202 13.231 99.8405 12.2649 100.651 11.4616C101.462 10.648 102.425 10.0125 103.54 9.5549C104.655 9.0973 105.866 8.8685 107.174 8.8685H112.526C113.833 8.8685 115.04 9.0973 116.144 9.5549C117.259 10.0125 118.222 10.648 119.033 11.4616C119.844 12.2649 120.477 13.231 120.934 14.3597C121.39 15.4783 121.618 16.6986 121.618 18.0205V22.1999ZM117.665 18.0205C117.665 17.2375 117.538 16.5308 117.285 15.9003C117.041 15.2596 116.692 14.7156 116.235 14.2682C115.789 13.8106 115.247 13.4598 114.609 13.2157C113.98 12.9615 113.286 12.8344 112.526 12.8344H107.174C106.404 12.8344 105.699 12.9615 105.06 13.2157C104.432 13.4598 103.89 13.8106 103.434 14.2682C102.977 14.7156 102.623 15.2596 102.369 15.9003C102.126 16.5308 102.004 17.2375 102.004 18.0205V22.1999C102.004 22.9829 102.126 23.6948 102.369 24.3354C102.623 24.9659 102.977 25.5099 103.434 25.9675C103.89 26.4149 104.432 26.7658 105.06 27.02C105.699 27.264 106.404 27.3861 107.174 27.3861H112.495C113.266 27.3861 113.965 27.264 114.594 27.02C115.232 26.7658 115.779 26.4149 116.235 25.9675C116.692 25.5099 117.041 24.9659 117.285 24.3354C117.538 23.6948 117.665 22.9829 117.665 22.1999V18.0205ZM150.901 31.0468H146.918V18.0205L139.909 30.3908C139.736 30.7063 139.493 30.9451 139.179 31.108C138.874 31.2706 138.545 31.352 138.19 31.352C137.846 31.352 137.521 31.2706 137.217 31.108C136.923 30.9451 136.69 30.7063 136.518 30.3908L129.478 18.0205V31.0468H125.525V10.8667C125.525 10.4091 125.657 10.0023 125.921 9.64641C126.194 9.2905 126.549 9.05153 126.985 8.9295C127.198 8.87867 127.411 8.86341 127.623 8.88376C127.836 8.89393 128.039 8.93967 128.232 9.02101C128.434 9.09221 128.617 9.19899 128.779 9.34136C128.941 9.47353 129.078 9.63624 129.189 9.82944L138.19 25.5252L147.191 9.82944C147.424 9.44304 147.744 9.16847 148.149 9.00578C148.564 8.84307 148.995 8.81764 149.441 8.9295C149.867 9.05153 150.217 9.2905 150.491 9.64641C150.764 10.0023 150.901 10.4091 150.901 10.8667V31.0468ZM178.39 22.1999C178.39 23.532 178.162 24.7574 177.706 25.876C177.25 26.9946 176.616 27.9606 175.805 28.774C174.994 29.5877 174.031 30.2231 172.917 30.6808C171.812 31.1283 170.605 31.352 169.298 31.352H163.946C162.639 31.352 161.427 31.1283 160.312 30.6808C159.197 30.2231 158.234 29.5877 157.424 28.774C156.613 27.9606 155.974 26.9946 155.508 25.876C155.052 24.7574 154.824 23.532 154.824 22.1999V18.0205C154.824 16.6986 155.052 15.4783 155.508 14.3597C155.974 13.231 156.613 12.2649 157.424 11.4616C158.234 10.648 159.197 10.0125 160.312 9.5549C161.427 9.0973 162.639 8.8685 163.946 8.8685H169.298C170.605 8.8685 171.812 9.0973 172.917 9.5549C174.031 10.0125 174.994 10.648 175.805 11.4616C176.616 12.2649 177.25 13.231 177.706 14.3597C178.162 15.4783 178.39 16.6986 178.39 18.0205V22.1999ZM174.437 18.0205C174.437 17.2375 174.31 16.5308 174.057 15.9003C173.814 15.2596 173.464 14.7156 173.008 14.2682C172.562 13.8106 172.019 13.4598 171.381 13.2157C170.752 12.9615 170.058 12.8344 169.298 12.8344H163.946C163.176 12.8344 162.471 12.9615 161.833 13.2157C161.204 13.4598 160.662 13.8106 160.206 14.2682C159.75 14.7156 159.395 15.2596 159.142 15.9003C158.898 16.5308 158.777 17.2375 158.777 18.0205V22.1999C158.777 22.9829 158.898 23.6948 159.142 24.3354C159.395 24.9659 159.75 25.5099 160.206 25.9675C160.662 26.4149 161.204 26.7658 161.833 27.02C162.471 27.264 163.176 27.3861 163.946 27.3861H169.267C170.038 27.3861 170.737 27.264 171.366 27.02C172.004 26.7658 172.552 26.4149 173.008 25.9675C173.464 25.5099 173.814 24.9659 174.057 24.3354C174.31 23.6948 174.437 22.9829 174.437 22.1999V18.0205Z" fill="white"/>
<path d="M204.055 21.8949C204.055 23.227 203.822 24.4524 203.355 25.5709C202.899 26.6895 202.266 27.6556 201.455 28.4691C200.644 29.2723 199.681 29.9029 198.566 30.3606C197.451 30.818 196.24 31.0469 194.932 31.0469H184.259C183.975 31.0469 183.712 30.996 183.468 30.8943C183.225 30.7926 183.012 30.6554 182.83 30.4826C182.657 30.2994 182.521 30.086 182.419 29.842C182.318 29.5977 182.267 29.3334 182.267 29.0486V11.1718C182.267 10.8972 182.318 10.6379 182.419 10.3938C182.521 10.1498 182.657 9.93624 182.83 9.75321C183.012 9.57018 183.225 9.42781 183.468 9.32613C183.712 9.22444 183.975 9.17358 184.259 9.17358H194.932C196.24 9.17358 197.451 9.40238 198.566 9.85998C199.681 10.3176 200.644 10.9532 201.455 11.7667C202.266 12.57 202.899 13.536 203.355 14.6648C203.822 15.7834 204.055 17.0036 204.055 18.3256V21.8949ZM200.102 18.3256C200.102 17.5528 199.975 16.846 199.721 16.2054C199.478 15.5647 199.129 15.0207 198.672 14.5733C198.216 14.1157 197.669 13.7648 197.03 13.5208C196.402 13.2666 195.702 13.1395 194.932 13.1395H186.22V27.081H194.932C195.702 27.081 196.402 26.959 197.03 26.7149C197.669 26.4607 198.216 26.1099 198.672 25.6625C199.129 25.2048 199.478 24.6608 199.721 24.0304C199.975 23.3897 200.102 22.6779 200.102 21.8949V18.3256ZM225.857 22.1084H213.375V18.112H225.857V22.1084ZM227.636 31.0469H213.375C212.827 31.0469 212.229 30.9503 211.581 30.7572C210.932 30.5637 210.329 30.2486 209.772 29.8114C209.224 29.364 208.763 28.7894 208.388 28.0877C208.023 27.3759 207.84 26.5065 207.84 25.4794V11.1718C207.84 10.8972 207.891 10.6379 207.992 10.3938C208.094 10.1498 208.231 9.93624 208.403 9.75321C208.585 9.57018 208.798 9.42781 209.042 9.32613C209.285 9.22444 209.549 9.17358 209.832 9.17358H227.636V13.1395H211.794V25.4794C211.794 25.998 211.93 26.3946 212.204 26.6692C212.478 26.9437 212.878 27.081 213.405 27.081H227.636V31.0469ZM241.426 16.9833L248.086 9.17358H253.483L244.102 20.1408L253.422 31.0469H248.055L241.426 23.2982L234.828 31.0469H229.446L238.751 20.1408L229.415 9.17358H234.767L241.426 16.9833Z" fill="#00AAD6"/>
<path d="M8.31833 18.9479C8.37443 13.7631 12.6053 9.57688 17.817 9.57688C19.6086 9.57417 21.364 10.0792 22.8788 11.0331V1.14285H17.8517C0.104365 1.14285 0 15.9283 0 15.9283V36.8571H8.31688V18.9479H8.31833Z" fill="white"/>
<path d="M27.2981 1.14285V18.4622C27.3101 18.6573 27.3169 18.8539 27.3169 19.052C27.3169 24.285 23.0637 28.5273 17.8169 28.5273C16.0102 28.5301 14.2406 28.0166 12.7173 27.0476V36.8571H17.7995C35.599 36.8571 35.599 21.1346 35.599 21.1346V1.14285H27.2981Z" fill="white"/>
<path d="M17.7912 24.0539C20.5971 24.0539 22.8718 21.7852 22.8718 18.9866C22.8718 16.1879 20.5971 13.9192 17.7912 13.9192C14.9852 13.9192 12.7106 16.1879 12.7106 18.9866C12.7106 21.7852 14.9852 24.0539 17.7912 24.0539Z" fill="#00AAD6"/>
</g>
<defs>
<clipPath id="clip0_4_37">
<rect width="253.75" height="40" fill="white"/>
</clipPath>
</defs>
</svg>
